# xmcd CD database file
#
# Track frame offsets:
#	150
#	24222
#	45502
#	64712
#	86775
#	99252
#	114654
#	137285
#	159592
#	172510
#	192880
#	205350
#	226045
#	246677
#
# Disc length: 3540 seconds
#
# Revision: 1
# Processed by: cddbd v1.5.2PL0 Copyright (c) Steve Scherf et al.
# Submitted via: CDex 1.51
#
DISCID=a90dd20e
DTITLE=Clark Terry - Big Band Basie
DYEAR=1995
DGENRE=Jazz
TTITLE0=Shiny Stockings
TTITLE1=Jumpin' At The Woodside
TTITLE2=Jessica's Day
TTITLE3=Until I Met You
TTITLE4=Flute Juice
TTITLE5=Sixteen Men Swinging
TTITLE6=Li'l Darlin'
TTITLE7=Swinging The Blues
TTITLE8=Ya Gotta Try
TTITLE9=Moten Swing
TTITLE10=Li'l Ol' Groovemaker
TTITLE11=One O'Clock Jump
TTITLE12=Winter Wonderland
TTITLE13=Swinging The Blues (Alternate Take)
EXTD=Lothar 2005 YEAR: 1995
EXTT0=
EXTT1=
EXTT2=
EXTT3=
EXTT4=
EXTT5=
EXTT6=
EXTT7=
EXTT8=
EXTT9=
EXTT10=
EXTT11=
EXTT12=
EXTT13=
PLAYORDER=
